<svg width="128" height="128" viewBox="0 0 128 128" fill="none" xmlns="http://www.w3.org/2000/svg">
<path d="M0 24C0 10.7452 10.7452 0 24 0H104C117.255 0 128 10.7452 128 24V104C128 117.255 117.255 128 104 128H24C10.7452 128 0 117.255 0 104V24Z" fill="url(#paint0_linear_6045_1078)"/>
<path d="M92.0819 44V67.2532C92.0815 71.4358 90.9362 75.544 88.7621 79.1615C86.5881 82.7789 83.4625 85.7771 79.7021 87.8523L65.7428 95.5537C65.2126 95.8462 64.6125 96 64.0019 96C63.3912 96 62.7912 95.8462 62.2609 95.5537L48.3016 87.8523C44.5402 85.7766 41.414 82.7773 39.2398 79.1585C37.0657 75.5397 35.9211 71.4302 35.9219 67.2464V44" stroke="#81197D" stroke-width="3" stroke-linecap="round"/>
<path fill-rule="evenodd" clip-rule="evenodd" d="M62.8226 32.2426C63.1947 32.0826 63.5952 32 64 32C64.4048 32 64.8053 32.0826 65.1774 32.2426L84.2845 40.465C85.3598 40.9277 86.2761 41.6971 86.92 42.6777C87.5638 43.6584 87.9067 44.8071 87.9062 45.9816V66.56C87.9059 70.2614 86.9309 73.897 85.08 77.0984C83.229 80.2997 80.568 82.9531 77.3666 84.7895L65.4822 91.605C65.0308 91.8638 64.5199 92 64 92C63.4801 92 62.9692 91.8638 62.5178 91.605L50.6334 84.7895C47.4311 82.9526 44.7695 80.2983 42.9185 77.0958C41.0676 73.8933 40.0931 70.2565 40.0938 66.554V45.9816C40.0939 44.8076 40.4371 43.6595 41.0809 42.6795C41.7246 41.6995 42.6407 40.9305 43.7155 40.468L62.8226 32.2426ZM75.0776 58.1216C75.6219 57.5559 75.9231 56.7981 75.9163 56.0116C75.9095 55.2251 75.5952 54.4727 75.0412 53.9165C74.4871 53.3603 73.7376 53.0448 72.9541 53.038C72.1706 53.0312 71.4157 53.3335 70.8521 53.88L61.0117 63.7582L57.1479 59.8795C56.5843 59.3331 55.8294 59.0307 55.0459 59.0375C54.2624 59.0444 53.5129 59.3598 52.9588 59.916C52.4048 60.4722 52.0905 61.2246 52.0837 62.0111C52.0769 62.7976 52.3781 63.5554 52.9224 64.1212L58.899 70.1207C59.4594 70.6831 60.2193 70.999 61.0117 70.999C61.8041 70.999 62.564 70.6831 63.1244 70.1207L75.0776 58.1216Z" fill="url(#paint1_linear_6045_1078)"/>
<defs>
<linearGradient id="paint0_linear_6045_1078" x1="64" y1="-59.5" x2="65.5" y2="132" gradientUnits="userSpaceOnUse">
<stop stop-color="#1B091A"/>
<stop offset="1" stop-color="#812A7E" stop-opacity="0.5"/>
</linearGradient>
<linearGradient id="paint1_linear_6045_1078" x1="82.7076" y1="31.6169" x2="23.7145" y2="77.4642" gradientUnits="userSpaceOnUse">
<stop stop-color="#FE4CE7"/>
<stop offset="1" stop-color="#9743AA"/>
</linearGradient>
</defs>
</svg>
